<?xml version="1.0" standalone="no"?>
<!DOCTYPE svg PUBLIC "-//W3C//DTD SVG 20010904//EN"
 "http://www.w3.org/TR/2001/REC-SVG-20010904/DTD/svg10.dtd">
<svg version="1.0" xmlns="http://www.w3.org/2000/svg"
 width="980.000000pt" height="922.000000pt" viewBox="0 0 980.000000 922.000000"
 preserveAspectRatio="xMidYMid meet">

<g transform="translate(0.000000,922.000000) scale(0.100000,-0.100000)"
fill="#000000" stroke="none">
<path d="M5320 9199 c-163 -14 -388 -46 -580 -85 -1673 -333 -3064 -1456
-3729 -3011 -252 -590 -410 -1306 -411 -1860 l0 -163 -222 0 c-239 0 -342 -10
-366 -34 -13 -13 -13 -22 -4 -54 10 -34 269 -452 497 -802 82 -127 202 -290
213 -290 33 0 271 326 611 839 124 187 171 268 171 296 0 30 -54 37 -319 43
l-263 5 6 126 c12 234 27 405 47 551 187 1347 969 2576 2120 3333 639 420
1349 678 2099 761 74 9 223 20 330 26 284 16 323 27 361 101 37 74 17 150 -54
203 -26 19 -43 21 -215 22 -103 1 -234 -2 -292 -7z"/>
<path d="M5340 8129 c-679 -76 -1320 -308 -1880 -682 -833 -556 -1429 -1413
-1678 -2412 -88 -350 -105 -510 -106 -950 0 -371 11 -519 55 -740 168 -845
542 -1557 1125 -2139 643 -644 1458 -1042 2389 -1167 229 -31 719 -34 945 -6
654 81 1230 291 1775 645 372 242 740 584 1006 937 445 589 713 1266 805 2030
25 208 26 670 0 875 -91 745 -357 1416 -797 2006 -99 132 -204 249 -381 425
-235 235 -370 347 -593 496 -563 374 -1206 609 -1845 673 -144 15 -715 21
-820 9z m770 -599 c372 -33 800 -160 1178 -349 348 -174 626 -375 903 -651
292 -290 491 -572 673 -951 719 -1499 282 -3286 -1049 -4284 -502 -376 -1070
-600 -1720 -677 -143 -17 -576 -16 -720 0 -319 38 -619 109 -860 204 -149 58
-482 225 -635 317 -558 337 -1059 920 -1333 1551 -195 448 -287 895 -287 1390
0 564 118 1062 371 1560 178 352 369 613 658 900 239 238 444 394 732 557 414
235 935 404 1367 443 115 10 559 4 722 -10z"/>
<path d="M5664 6872 c-47 -23 -79 -60 -95 -111 -6 -20 -13 -134 -16 -253 l-6
-218 -36 -6 c-229 -39 -412 -91 -557 -159 -337 -157 -542 -415 -620 -777 -29
-132 -26 -411 5 -548 46 -209 109 -326 256 -479 119 -124 219 -197 368 -269
107 -53 353 -146 518 -197 l57 -18 7 -401 c9 -515 4 -951 -12 -967 -25 -25
-154 42 -280 144 -119 96 -183 198 -273 437 -69 182 -106 254 -157 306 -66 69
-118 87 -243 88 -95 1 -111 -2 -167 -28 -65 -30 -137 -97 -167 -154 -51 -98
-57 -259 -16 -417 28 -107 114 -282 191 -386 216 -294 537 -484 949 -564 74
-14 145 -28 156 -30 21 -5 22 -11 27 -217 6 -241 17 -300 68 -342 46 -39 100
-52 151 -37 114 35 120 53 126 353 l4 238 37 5 c343 56 622 150 779 262 89 63
232 207 313 316 157 209 233 455 233 747 -1 202 -36 365 -115 525 -98 200
-322 428 -506 515 -163 78 -505 199 -666 236 l-78 18 3 596 c2 327 7 603 12
613 12 26 44 20 125 -23 111 -61 186 -124 242 -203 58 -81 129 -220 129 -251
0 -32 54 -137 94 -183 22 -25 64 -56 104 -75 61 -30 74 -33 162 -33 118 0 166
20 249 103 91 90 106 127 105 247 0 81 -6 115 -27 178 -93 271 -309 529 -553
663 -108 60 -240 102 -452 144 l-187 38 -5 239 c-6 264 -6 266 -75 319 -46 35
-107 41 -161 16z m-116 -1712 c0 -212 -3 -427 -7 -477 l-6 -93 -120 61 c-247
125 -340 221 -380 391 -33 141 -1 310 82 431 53 77 242 200 363 237 l55 16 6
-90 c4 -50 7 -264 7 -476z m492 -1472 c381 -151 520 -323 508 -628 -8 -173
-65 -302 -188 -420 -32 -30 -83 -70 -113 -88 -59 -36 -252 -116 -303 -127 -30
-6 -31 -4 -38 32 -3 21 -6 316 -6 656 l0 619 33 -7 c17 -4 66 -21 107 -37z"/>
</g>
</svg>
